<svg width="31" height="28" viewBox="0 0 31 28" fill="none" xmlns="http://www.w3.org/2000/svg">
<rect x="2" width="28" height="28" rx="14" fill="#FEDC5A"/>
<path d="M14.5978 14.296C14.7578 14.216 15.0778 14.12 15.5738 14.12C16.4538 14.12 17.4138 14.632 17.4138 15.832C17.4138 16.776 16.7098 17.592 15.4458 17.592C14.2938 17.592 13.4298 16.776 13.3818 15.576L11.5098 15.96C11.6378 17.688 13.0618 19.24 15.4618 19.24C17.9258 19.24 19.3498 17.624 19.3498 15.848C19.3498 13.848 17.7978 12.728 16.2458 12.696L19.0618 10.232V8.632H11.8618V10.312H16.5818L13.7178 12.872L14.5978 14.296Z" fill="black" fill-opacity="0.788926"/>
</svg>
